<svg width="20" height="20" viewBox="0 0 20 20" fill="none" xmlns="http://www.w3.org/2000/svg">
<path fill-rule="evenodd" clip-rule="evenodd" d="M11.5312 3.04231C10.605 3.24551 9.88674 3.92776 9.64098 4.83782C9.59083 5.02351 9.57997 5.15302 9.56931 5.69272L9.55673 6.32876H8.47846C7.45173 6.32876 7.39502 6.33139 7.29226 6.38383C7.22278 6.41929 7.1647 6.47739 7.12926 6.5469C7.07611 6.65116 7.07422 6.70555 7.07422 8.13322V9.61158H5.20008C3.37573 9.61158 3.32307 9.61303 3.21804 9.66665C3.14856 9.7021 3.09048 9.76021 3.05504 9.82972C3.00088 9.93595 3 9.98505 3 12.9056C3 15.0148 3.00897 15.9155 3.03101 16.0186C3.13155 16.4886 3.50911 16.8663 3.97888 16.9669C4.18355 17.0107 15.8132 17.0112 16.0211 16.9674C16.4851 16.8696 16.8727 16.482 16.9696 16.0186C16.9912 15.9157 17 14.5354 17 11.2642C17 6.69857 16.9995 6.65384 16.945 6.5469C16.9095 6.47739 16.8514 6.41929 16.782 6.38383C16.6791 6.33136 16.6225 6.32876 15.5821 6.32876H14.4901L14.4776 5.69272C14.4669 5.15302 14.456 5.02351 14.4059 4.83782C14.1715 3.96995 13.4969 3.29579 12.6387 3.0718C12.3214 2.98899 11.8335 2.97599 11.5312 3.04231ZM12.4173 3.86597C12.7262 3.94503 12.936 4.06646 13.1728 4.30343C13.4097 4.54039 13.531 4.75027 13.6101 5.0593C13.6547 5.23397 13.6641 5.36233 13.6641 5.79968V6.32876H12.0234H10.3828V5.79968C10.3828 5.36233 10.3922 5.23397 10.4368 5.0593C10.5164 4.74817 10.6368 4.54028 10.8758 4.30138C11.2965 3.88107 11.8572 3.72267 12.4173 3.86597ZM9.58984 7.39677C9.58984 7.69685 9.63991 7.81733 9.80266 7.90884C9.93768 7.98475 10.052 7.98658 10.1921 7.9151C10.3554 7.83177 10.4102 7.7015 10.4102 7.39677V7.14947H12.0508H13.6914V7.39677C13.6914 7.69685 13.7415 7.81733 13.9042 7.90884C14.0392 7.98475 14.1536 7.98658 14.2937 7.9151C14.4569 7.83177 14.5117 7.7015 14.5117 7.39677V7.14947H15.3457H16.1797V11.5003C16.1797 15.8068 16.1791 15.8522 16.1246 15.9591C16.0892 16.0286 16.0311 16.0867 15.9616 16.1221C15.8574 16.1754 15.8031 16.1772 14.3456 16.1772H12.8374L12.8594 16.102C12.8715 16.0606 12.8855 14.6572 12.8905 12.9833C12.8995 9.9676 12.8991 9.93896 12.844 9.83084C12.808 9.76024 12.7503 9.70232 12.6804 9.66665C12.5747 9.61273 12.5237 9.61158 10.2335 9.61158H7.89453V8.38052V7.14947H8.74219H9.58984V7.39677ZM12.0781 13.1417C12.0781 15.8032 12.0771 15.853 12.0231 15.9591C11.9876 16.0286 11.9296 16.0867 11.8601 16.1221C11.7535 16.1766 11.7067 16.1772 7.94922 16.1772C4.19175 16.1772 4.14496 16.1766 4.03835 16.1221C3.96887 16.0867 3.91079 16.0286 3.87536 15.9591C3.8213 15.853 3.82031 15.8032 3.82031 13.1417V10.4323H7.94922H12.0781V13.1417ZM5.7005 11.3094C5.63591 11.3435 5.57677 11.4056 5.53988 11.4779C5.48536 11.5848 5.48243 11.6216 5.49564 12.0314C5.50608 12.3557 5.52495 12.5276 5.56782 12.6892C5.80139 13.57 6.49549 14.2482 7.39335 14.4729C7.67537 14.5435 8.27617 14.5356 8.56445 14.4574C9.43114 14.2226 10.1021 13.5508 10.3306 12.6892C10.3735 12.5276 10.3924 12.3557 10.4028 12.0314C10.416 11.6215 10.4131 11.5848 10.3585 11.4778C10.2932 11.3496 10.139 11.253 10 11.253C9.86432 11.253 9.70679 11.3497 9.64489 11.4711C9.59848 11.5621 9.58984 11.6323 9.58984 11.9178C9.58984 12.5121 9.4584 12.8609 9.09766 13.2239C8.86201 13.461 8.65398 13.5815 8.34308 13.6611C7.95638 13.76 7.53529 13.7082 7.17501 13.5174C6.95131 13.399 6.61949 13.0676 6.50498 12.8483C6.36555 12.5812 6.30859 12.3113 6.30859 11.9178C6.30859 11.6323 6.29995 11.5621 6.25355 11.4711C6.15265 11.2733 5.90566 11.201 5.7005 11.3094Z" fill="white"/>
</svg>
