<svg width="20" height="20" viewBox="0 0 20 20" fill="none" xmlns="http://www.w3.org/2000/svg">
<path fill-rule="evenodd" clip-rule="evenodd" d="M9.66699 6.68848V9.68848L10.4745 9.18263L11.2583 9.54975L12.0545 9.18263L12.667 9.68848V6.68848" fill="#F2F5F8"/>
<path d="M9.66699 6.68848V9.68848L10.4745 9.18263L11.2583 9.54975L12.0545 9.18263L12.667 9.68848V6.68848" stroke="#F2F5F8" stroke-width="0.60522" stroke-linecap="round" stroke-linejoin="round"/>
<path d="M10.5955 8.8345V6.93029H12.2419V8.8345L12.0319 8.722C11.9705 8.68857 11.8964 8.68857 11.835 8.722L11.4175 8.94617L11.0008 8.722C10.9392 8.68939 10.8655 8.68939 10.8039 8.722L10.5955 8.8345Z" fill="white"/>
<path fill-rule="evenodd" clip-rule="evenodd" d="M19.3317 5.41736C19.3319 5.30675 19.288 5.2006 19.2099 5.12232C19.1317 5.04404 19.0257 5.00003 18.915 5.00001H9.27393C9.22298 4.99973 9.17244 5.00914 9.125 5.02772L6.26774 6.12329L6.2624 6.12674C6.2293 6.14195 6.1984 6.16155 6.17054 6.18503C6.15501 6.19412 6.13965 6.2042 6.1254 6.21519C6.1053 6.23805 6.08778 6.26307 6.07317 6.28977C6.05898 6.30749 6.04646 6.32637 6.0354 6.34619C6.02845 6.36803 6.02328 6.3904 6.01994 6.41308C6.01014 6.44311 6.00384 6.47416 6.00127 6.50564L6.00074 6.50924L6 6.51293V16.2712C5.99985 16.3818 6.04367 16.4879 6.12183 16.5662C6.19998 16.6445 6.30605 16.6885 6.41667 16.6885H16.118L16.1234 16.6874L16.127 16.6885C16.1779 16.6886 16.2284 16.6792 16.2759 16.6608L19.0623 15.5954C19.2237 15.5336 19.3303 15.3786 19.3301 15.2057V14.355H19.3335V12.355H19.3099L19.3301 12.3446V5.44754L19.3289 5.44244L19.3276 5.4376C19.3278 5.43423 19.3287 5.43111 19.3297 5.428C19.3307 5.42456 19.3317 5.42113 19.3317 5.41736ZM18.4967 14.355V14.918L16.4167 15.7277V13.2999L16.4187 13.1547L16.4232 6.80069L18.4967 6.05319V12.355V14.355ZM15.5794 12.355L15.5833 6.93029H6.83333V15.8538H15.5833V14.355L15.5794 12.355ZM11.7178 6.09559L12.2287 5.83471L13.3415 5.83475H12.2536L11.7178 6.09559Z" fill="white"/>
<path d="M2.5 9C2.22386 9 2 8.77614 2 8.5C2 8.22386 2.22386 8 2.5 8H6V9H2.5Z" fill="white"/>
<path d="M4.5 12C4.22386 12 4 11.7761 4 11.5C4 11.2239 4.22386 11 4.5 11H6V12H4.5Z" fill="white"/>
<path d="M3.5 15C3.22386 15 3 14.7761 3 14.5C3 14.2239 3.22386 14 3.5 14H6V15H3.5Z" fill="white"/>
<path d="M0.5 15C0.223858 15 0 14.7761 0 14.5C0 14.2239 0.223858 14 0.5 14H1.5C1.77614 14 2 14.2239 2 14.5C2 14.7761 1.77614 15 1.5 15H0.5Z" fill="white"/>
<circle cx="2.5" cy="11.5" r="0.5" fill="white"/>
</svg>
