<svg width="20" height="20" viewBox="0 0 20 20" fill="none" xmlns="http://www.w3.org/2000/svg">
<path d="M1.83721 6.82988C1.86506 6.80641 1.89596 6.7868 1.92907 6.7716C1.89597 6.78682 1.86507 6.80642 1.83721 6.82988Z" fill="#F2F5F8"/>
<path d="M1.73983 6.93459C1.75445 6.90788 1.77197 6.88287 1.79207 6.86001C1.77198 6.88288 1.75447 6.9079 1.73983 6.93459Z" fill="#F2F5F8"/>
<path d="M1.68659 7.05794C1.68993 7.03526 1.6951 7.01289 1.70206 6.99105C1.6951 7.01289 1.68993 7.03526 1.68659 7.05794Z" fill="#F2F5F8"/>
<path d="M1.66793 7.15049C1.6705 7.11901 1.67675 7.08795 1.68654 7.05792C1.6768 7.08796 1.67055 7.11902 1.66793 7.15049Z" fill="#F2F5F8"/>
<path d="M1.70221 6.99105C1.71327 6.97123 1.72596 6.95237 1.74015 6.93465C1.72599 6.95238 1.7133 6.97125 1.70221 6.99105Z" fill="#F2F5F8"/>
<path d="M1.79242 6.86001C1.80667 6.84902 1.8216 6.83894 1.83713 6.82985C1.8216 6.83894 1.80667 6.84901 1.79242 6.86001Z" fill="#F2F5F8"/>
<path fill-rule="evenodd" clip-rule="evenodd" d="M14.9984 6.06214C14.9985 5.95152 14.9547 5.84538 14.8765 5.76709C14.7984 5.68881 14.6923 5.64481 14.5817 5.64478H4.94058C4.88963 5.64451 4.8391 5.65392 4.79166 5.6725L1.9344 6.76806L1.92896 6.77153C1.89585 6.78673 1.86495 6.80634 1.8371 6.82981C1.82157 6.83891 1.80664 6.84898 1.79239 6.85997C1.77229 6.88284 1.75477 6.90785 1.74015 6.93456C1.72596 6.95227 1.71327 6.97114 1.70221 6.99096C1.69526 7.0128 1.69009 7.03517 1.68675 7.05785C1.67695 7.08787 1.6707 7.11894 1.66813 7.15042C1.66811 7.1517 1.66775 7.15286 1.66739 7.15401L1.66739 7.15401C1.66702 7.1552 1.66666 7.15639 1.66666 7.15771V16.9159C1.6665 17.0266 1.71033 17.1327 1.78848 17.211C1.86664 17.2893 1.97271 17.3333 2.08332 17.3333H11.7847L11.7901 17.3322L11.7936 17.3333C11.8445 17.3333 11.895 17.3239 11.9425 17.3056L14.729 16.2402C14.8904 16.1784 14.9969 16.0233 14.9967 15.8505V13.5387C14.7266 13.6485 14.4479 13.7357 14.1634 13.7995V15.5628L12.0833 16.3725V13.9447H11.25V16.4986H2.49999V7.57507H5.84553H8.3252H11.25L11.2455 11.4995H12.0854L12.0898 7.44546L14.1634 6.69796V11.3197C14.4515 11.2377 14.7307 11.127 14.9967 10.9894V6.09231C14.9967 6.09051 14.9961 6.08886 14.9955 6.08721C14.9949 6.08564 14.9943 6.08407 14.9943 6.08238C14.9945 6.079 14.9954 6.07589 14.9963 6.07277C14.9973 6.06934 14.9984 6.06591 14.9984 6.06214ZM4.33723 6.74032L5.01767 6.47948H6.94252L6.43134 6.74032H4.33723ZM8.56722 6.74032H7.3841L7.89537 6.47948H9.00799L8.56722 6.74032ZM9.38606 6.74032H11.7168L12.399 6.47948H9.82714L9.38606 6.74032Z" fill="#F2F5F8"/>
<path fill-rule="evenodd" clip-rule="evenodd" d="M5.33365 7.33337V10.3334L6.14112 9.82753L6.92493 10.1946L7.72117 9.82753L8.33365 10.3334V7.33337" fill="#F2F5F8"/>
<path d="M5.33365 7.33337V10.3334L6.14112 9.82753L6.92493 10.1946L7.72117 9.82753L8.33365 10.3334V7.33337" stroke="#F2F5F8" stroke-width="0.60522" stroke-linecap="round" stroke-linejoin="round"/>
<path d="M12.9964 2.31568H7.25044L8.33906 1.26985L7.76288 0.666626L5.96357 2.39476C5.8827 2.47232 5.83637 2.57911 5.83499 2.69116C5.83362 2.8032 5.8773 2.91111 5.95624 2.99063L7.75556 4.80191L8.34639 4.21337L7.29032 3.1504H12.9964C15.5079 3.22248 17.505 5.28183 17.5 7.79434C17.4992 10.2888 15.4795 12.3118 12.9851 12.3168H6.68297V13.1516H12.9851C15.94 13.1459 18.3326 10.7493 18.3334 7.79434C18.3328 4.8237 15.966 2.39411 12.9964 2.31568Z" fill="#F2F5F8"/>
</svg>
